<svg xmlns="http://www.w3.org/2000/svg" version="1.0" viewBox="0 0 268 268">
  <path fill="#15803d" d="M120.3 1C96.8 3.6 74.6 12.2 55.7 25.8 46.4 32.4 33.2 45.4 26.9 54c-35.2 48-35.2 112 0 160 5.7 7.8 19.2 21.4 27 27 48.2 35.4 112 35.4 160.2 0 7.8-5.6 21.3-19.2 27-27 35.2-48 35.2-112 0-160-14.5-19.8-38.8-37.7-62.4-45.9C161 1.9 137.3-1 120.3 1zm-13.7 41.1c9.3 1.7 15.6 5.2 22.3 12.5l5.9 6.5 3.2-4.5c6.7-9.3 17.3-14.3 32.3-15.2 18-1.1 33.1 4.3 46.1 16.6 8.4 8 14.4 18.2 16.7 28.5l1.2 5.5h4.2c8.7 0 14.5 7.4 16.7 21.3 3.4 21.8-8.1 50.4-32.6 81.1-15.4 19.4-33.5 36.3-44.1 41.2-6.4 3-13.7 3.2-18.3.4-12.1-7.4-10.3-37.7 4-65.2 5.1-9.8 16.9-26.3 25.1-35.1 3.8-4.1 4.9-4.7 8.5-4.7 2.9 0 4.9.7 6.9 2.4 2.5 2.2 2.8 3 2.7 8.8-.1 4.4-.9 8.2-2.8 12.8-1.5 3.6-3 7.2-3.3 8-1.3 3.1 4.8-3.5 9.2-10.1 17.5-26.1 22.1-55.5 11.8-76.1-8.2-16.4-24.4-27-43.3-28.5-20.4-1.6-35.9 6.7-40 21.5-.6 2.3-1 26.3-1 64.8 0 54.6-.2 61.3-1.6 62.5-1.1.9-2 1-3.2.2-1.4-.8-1.7-3.2-2-14.6l-.3-13.6-5.7-1.6c-3.1-.9-6.9-2.5-8.3-3.6-1.5-1-3.4-1.9-4.3-1.9-1.6 0-9.6 3.7-9.6 4.4 0 1.8 8.4 17.6 9.4 17.6.7 0 2.5-1.8 4-4 2.9-4.4 5-5 6.6-2 1.3 2.5.3 4.7-5.2 10.6l-3.9 4.3 1.7 10.2c4.7 28.2-6.5 41.8-26.4 31.9-19-9.5-50.9-46.6-66-76.5-6.5-13-9.2-22-9.9-32.7C11.9 105.5 18.9 92 30.7 92c3.8 0 4.3-.3 4.8-2.8.4-1.5 1.7-5.9 3.1-9.8 9.3-26.6 38.6-42.7 68-37.3z"/>
  <path fill="#15803d" d="M91.8 50.7c-.6 1.6-1.1 6.4-1.2 10.8 0 6.3.4 8.9 2.1 12.1 3.5 6.6 9.2 11 17.5 13.4 4 1.2 7.9 2.3 8.6 2.6 2 .6 2.6 3.4 1 5.1-1.4 1.3-2.2 1.3-7.7-.1-3.3-.8-8.3-2.7-11.1-4.1-2.7-1.4-5.6-2.5-6.4-2.5-2.3 0-5.6 6.5-6.2 12.2-.8 8-1.2 9.5-3 10.2-2.9 1.1-4.4-1.3-4.4-6.9 0-6.2 2.1-12.6 5.5-17.1 3.1-4 3.1-3.9.1-10.5s-4-13.9-2.8-20.1c1.3-6.7.7-7.2-7-4.8C65.9 54.3 51 65.8 51 70.9 51 76.2 62.2 85 69 85c3.5 0 6.3 2.1 5.5 4.2-1 2.5-3.7 3-9.2 1.7-6.6-1.6-9.8-3.4-15-8.2-5.3-4.8-5.5-4.7-7.9 6.2-3.4 15.2-.4 32.5 9.1 51.6 4.8 9.7 14 23.3 15 22.3.2-.2-.9-4.2-2.5-8.8-3.9-11.2-3.9-16.2-.1-20.1 2.3-2.3 3.8-2.9 7.2-2.9 3.9 0 4.7.5 9.2 5.2 2.7 2.9 7.8 9.2 11.5 14 6.9 9.3 7.8 9.8 13.7 7.4l3.4-1.4-.1-8.5c0-8.4 1.2-12.7 3.5-12.7 2.7 0 3.4 2.2 2.9 8.9-.7 9.8 2.4 14.7 10.4 17 5.3 1.5 5.4 1.2 5.4-16.4v-16.3l-3.5-3.1c-10.3-9-26.6-5.3-34.1 7.7-2.6 4.5-5 5-8.3 1.8-3.2-3.1-11.8-6.6-16-6.6-1.5 0-5 .7-7.6 1.5-5.5 1.6-7.8.7-7.3-2.9.2-1.5 1.7-2.5 5.8-3.7l5.5-1.6.6-8.1c.6-7.7 2.6-13.2 4.9-13.2 1.8 0 4.1 3.3 3.5 4.9-.4.9-.9 4.3-1.2 7.6-.6 7.3 0 8.1 8.5 12l6.2 2.9 4.8-4.6c7.2-7 12.2-9.2 21.2-9.2 5 .1 8.6.6 10.7 1.7 6.5 3.4 6.3 3.8 6.3-18.8V76.1l-4.8-1.5c-10.4-3-16.3-7.6-20-15.2-3.4-7.3 2.1-8.9 6.3-1.9 2.9 5 8.3 9.1 13.3 10.1 3.8.8 3.8.5 1.2-4.5-3.5-7-11.4-12.2-21.5-14-9.8-1.8-12.4-1.5-13.7 1.6z"/>
  <path fill="#15803d" d="M25.1 101.4c-3.2 3.4-5.1 10.8-5.1 20.1 0 19.2 9.5 40.3 29.9 66.5 20.5 26.3 41 44 50.8 44 3.3 0 6.9-2.9 8.4-6.7 1.4-3.8 1.1-17.5-.7-26.1-3.7-17.9-15.8-39.7-31.2-56.1-5.2-5.5-6.3-6.3-7.6-5.2-3.4 2.8-.6 13.3 7 26.3 4.5 7.6 4.6 7.9 3 10.3-2.5 3.8-6.3 3.3-13.3-1.9-15.2-11.2-29.4-39.7-31-62.4-.4-5.2-1.2-8.9-2-9.8-2.2-2.1-5.7-1.7-8.2 1zm210.5-.2c-1 1.4-1.6 4.4-1.6 7.9 0 13.8-9.3 38-20 52.1-6 7.9-16 15.8-19.9 15.8-6.3 0-6.6-4.6-1-14 4.1-7 7.9-17.2 7.9-21.5 0-1.2-.7-2.8-1.6-3.6-1.3-1.1-2.4-.3-7.7 5.3-16.1 16.9-27.3 37.8-31.2 58-3.6 19.1-.4 30.8 8.5 30.8 10 0 32.3-20.5 54-49.5 10.4-13.9 17.3-25.8 21.8-37.9 3-7.8 3.6-10.6 4-20.1.5-12.4-.6-17.9-4.4-22.5-3.1-3.6-6.6-3.9-8.8-.8z"/>
</svg>